<?xml version="1.0" encoding="utf-8"?>
<!-- Generator: Adobe Illustrator 22.1.0, SVG Export Plug-In . SVG Version: 6.00 Build 0)  -->
<svg version="1.1" id="レイヤー_1のコピー" xmlns="http://www.w3.org/2000/svg" xmlns:xlink="http://www.w3.org/1999/xlink"
	 x="0px" y="0px" viewBox="0 0 1024 1024" style="enable-background:new 0 0 1024 1024;" xml:space="preserve">
<style type="text/css">
	.st0{fill:#999999;}
	.st1{fill:#4D4D4D;}
	.st2{fill:#A00309;}
</style>
<title>rcclogo</title>
<polygon class="st0" points="945,387.2 945,262 620.5,74.6 512.6,12.3 512.5,12.5 512.5,110.5 512.4,137.3 512.4,210.6 512.3,311.1 
	512.3,387.2 512.3,410.6 512.3,511.6 619.3,573.6 620.2,574.1 944.8,762.1 945,762 945,637.2 620.5,449.7 620.5,199.7 "/>
<polygon class="st1" points="620.2,574.1 619.3,573.6 512.3,511.6 512.3,511.9 512.2,511.9 403.8,574.5 403.7,574.5 188.2,698.9 
	79,762 186.9,824.3 512,1012 620.4,949.4 295.7,761.2 510.9,636.5 836.5,824.5 836.6,824.6 944.8,762.1 "/>
<path class="st2" d="M512,12L403.8,74.5l-216.5,125L79,262v99.7v100v100v100V762l109.3-63.1l-0.7-0.4h-0.3V599v-99.9l43.1-24.9
	l0.2,0.3l85.9,49.6l87.3,50.4l0,0l108.4-62.6h0.1v-0.3l-87.1-50.5l-21.4-12.4l-64.3-37.2l-0.2-0.3l64.4-37.3l108.6-62.8l0.1-100.5
	l0-73.3l0-26.7l0-98l0.1-0.2L512,12z M403.8,273.5L187.3,399V299l216.5-125.5V273.5z"/>
</svg>
